# xmcd CD database file
#
# Track frame offsets:
#	150
#	24262
#	42302
#	61812
#	84425
#	104650
#	120505
#	140762
#	160440
#	181687
#
# Disc length: 2702 seconds
#
# Revision: 3
# Processed by: cddbd v1.5.1PL0 Copyright (c) Steve Scherf et al.
# Submitted via: CDex 1.51
#
DISCID=7e0a8c0a
DTITLE=Lee Ritenour - Portrait
DYEAR=1987
DGENRE=Jazz
TTITLE0=Asa
TTITLE1=Turn the Heat Up
TTITLE2=Windmill
TTITLE3=White Water
TTITLE4=Portrait
TTITLE5=G-Rit
TTITLE6=Shades in the Shade
TTITLE7=Children's Games
TTITLE8=Runaway
TTITLE9=Route 17
EXTD=YEAR: 1987
EXTT0=
EXTT1=
EXTT2=
EXTT3=
EXTT4=
EXTT5=
EXTT6=
EXTT7=
EXTT8=
EXTT9=
PLAYORDER=
